<?xml version="1.0" encoding="UTF-8" standalone="no" ?>
<!DOCTYPE svg PUBLIC "-//W3C//DTD SVG 1.1//EN" "http://www.w3.org/Graphics/SVG/1.1/DTD/svg11.dtd">
<svg xmlns="http://www.w3.org/2000/svg" xmlns:xlink="http://www.w3.org/1999/xlink" version="1.1" width="1200" height="628" viewBox="0 0 1200 628" xml:space="preserve">
<desc>Created with Fabric.js 5.2.4</desc>
<defs>
</defs>
<rect x="0" y="0" width="100%" height="100%" fill="transparent"></rect>
<g transform="matrix(1 0 0 1 600 314)" id="66cd42cd-328a-4eec-a992-a0c3a0fcb813"  >
<rect style="stroke: none; stroke-width: 1; stroke-dasharray: none; stroke-linecap: butt; stroke-dashoffset: 0; stroke-linejoin: miter; stroke-miterlimit: 4; fill: rgb(255,255,255); fill-rule: nonzero; opacity: 1; visibility: hidden;" vector-effect="non-scaling-stroke"  x="-600" y="-314" rx="0" ry="0" width="1200" height="628" />
</g>
<g transform="matrix(Infinity NaN NaN Infinity 0 0)" id="147c975e-b0c9-4ee7-975b-f413ae436c00"  >
</g>
<g transform="matrix(8.68 0 0 8.68 187.94 280.99)"  >
<path style="stroke: none; stroke-width: 1; stroke-dasharray: none; stroke-linecap: butt; stroke-dashoffset: 0; stroke-linejoin: miter; stroke-miterlimit: 4; fill: rgb(0,69,64); fill-rule: nonzero; opacity: 1;" vector-effect="non-scaling-stroke"  transform=" translate(-18.21, -16.82)" d="M 14.486 21.9926 C 9.82359 24.526 7.0901 28.4893 5.23562 33.6365 C 0.467188 27.9801 -1.01332 21.8973 0.668467 15.0803 C 2.59501 7.27164 9.25129 1.34907 17.207 0.196715 C 24.6803 -0.885367 32.7718 2.57527 36.4183 8.64375 C 35.4327 8.52583 34.6442 8.42816 33.8551 8.33824 C 28.2684 7.70221 22.6877 7.60812 17.3172 9.51441 C 10.9235 11.7834 6.2909 15.8116 5.22192 22.9169 C 5.01527 24.2902 5.19214 25.7212 5.6644 27.1904 C 5.72574 26.9939 5.84127 26.7974 5.84127 26.6014 C 5.83055 19.626 9.62349 15.2649 15.6949 12.6678 C 20.6158 10.5631 25.8178 10.5721 31.0216 11.0884 L 31.7374 11.9805 C 31.0436 12.3414 30.1187 12.5284 29.6953 13.0918 C 27.6485 15.8163 25.7166 18.629 23.7894 21.4417 C 23.31 22.1415 23.0248 22.9711 22.6109 23.7191 C 19.2949 29.7119 15.7605 31.3877 8.18171 30.1621 C 10.3763 27.3179 12.3832 24.7178 14.4866 21.992 L 14.486 21.9926 Z" stroke-linecap="round" />
</g>
<g transform="matrix(8.68 0 0 8.68 228.89 356.72)"  >
<path style="stroke: none; stroke-width: 1; stroke-dasharray: none; stroke-linecap: butt; stroke-dashoffset: 0; stroke-linejoin: miter; stroke-miterlimit: 4; fill: rgb(255,225,117); fill-rule: nonzero; opacity: 1;" vector-effect="non-scaling-stroke"  transform=" translate(-22.93, -25.54)" d="M 5.85352 38.0499 C 7.23039 34.2862 8.50364 33.3899 11.9452 33.5584 C 18.9719 33.9026 23.3663 30.1978 26.1433 24.2014 C 28.2878 19.5706 31.1833 15.5918 35.2943 12.5421 C 36.022 12.0025 36.8319 11.5737 37.6037 11.0938 C 42.8569 19.6605 39.1021 32.3656 29.9696 37.321 C 23.6022 40.7763 17.1651 40.9299 10.7339 37.5122 C 9.01043 36.5962 7.37451 35.22 5.85352 38.0505 L 5.85352 38.0499 Z" stroke-linecap="round" />
</g>
<g transform="matrix(4.62 0 0 4.62 785.22 307.4)" style="" id="c388afed-b665-4cab-a988-b0a7830fbabc"  >
		<text xml:space="preserve" font-family="Alegreya" font-size="80" font-style="normal" font-weight="700" style="stroke: none; stroke-width: 1; stroke-dasharray: none; stroke-linecap: butt; stroke-dashoffset: 0; stroke-linejoin: miter; stroke-miterlimit: 4; fill: rgb(0,69,64); fill-rule: nonzero; opacity: 1; white-space: pre;" ><tspan x="-77.04" y="25.13" >Ecco</tspan></text>
</g>
</svg>