<svg xmlns="http://www.w3.org/2000/svg" width="125" height="14" fill="none"><path fill="#7A52F4" d="M13.661 9.904 11.25 13H.611V.958h3.726v8.946zM19.082 13h-3.726V.958h3.726zm10.154-7.524h7.704V13h-8.262q-1.566 0-2.898-.468t-2.304-1.278a6.3 6.3 0 0 1-1.512-1.944 5.6 5.6 0 0 1-.54-2.448q0-1.314.54-2.394a5.7 5.7 0 0 1 1.512-1.872q.972-.792 2.304-1.206 1.332-.432 2.898-.432H37.3L34.888 4.09h-6.21q-.756 0-1.404.216t-1.134.612a2.9 2.9 0 0 0-.738.936q-.27.522-.27 1.17t.252 1.188q.27.522.738.9.486.378 1.134.594.648.198 1.422.198h4.554V8.158h-6.228zM54.097 13H50.39V8.356h-7.164V13h-3.744V.958h3.744v4.266h7.164V.958h3.708zM71.75.958 69.337 4.09h-4.302V13H61.31V4.09h-5.652L58.07.958zm15.632 5.904a5.5 5.5 0 0 1-.558 2.448 5.9 5.9 0 0 1-1.512 1.944q-.955.81-2.287 1.278T80.127 13h-8.064V5.494h3.745v4.41h4.32q.774 0 1.422-.198a3.5 3.5 0 0 0 1.133-.594q.469-.378.739-.9.27-.54.27-1.188 0-.63-.27-1.17a2.66 2.66 0 0 0-.757-.918 3.6 3.6 0 0 0-1.133-.612 4.1 4.1 0 0 0-1.405-.234h-8.064L74.44.958h5.688q1.584 0 2.916.432t2.285 1.224a5.4 5.4 0 0 1 1.513 1.872q.54 1.08.54 2.376M93.096 13l2.25-3.096h4.14q.593 0 1.026.036a22 22 0 0 1-.594-.81 25 25 0 0 0-.63-.936l-2.16-3.186L91.474 13h-4.41l7.722-10.89q.378-.522.954-.936Q96.319.76 97.2.76q.845 0 1.403.396.577.378.973.954L107.1 13zM115.406.76q4.392 0 6.588 1.494 2.214 1.494 2.214 4.716 0 3.24-2.196 4.734t-6.606 1.494q-4.428 0-6.624-1.494-2.178-1.494-2.178-4.734 0-3.222 2.196-4.716T115.406.76m0 9.306q1.404 0 2.376-.108.972-.126 1.566-.468.612-.342.882-.936.27-.612.27-1.584t-.27-1.566a1.9 1.9 0 0 0-.882-.936q-.594-.342-1.566-.45-.972-.126-2.376-.126t-2.376.126q-.972.108-1.584.45a1.93 1.93 0 0 0-.864.936q-.27.594-.27 1.566t.27 1.584q.27.594.864.936.612.342 1.584.468.972.108 2.376.108"/></svg>