<svg xmlns="http://www.w3.org/2000/svg" width="16" height="17" fill="none"><path fill="#AB9FF2" d="M12.565.5h-9.13A3.435 3.435 0 0 0 0 3.935v9.13A3.435 3.435 0 0 0 3.435 16.5h9.13A3.435 3.435 0 0 0 16 13.065v-9.13A3.435 3.435 0 0 0 12.565.5"/><path fill="#FFFDF8" fill-rule="evenodd" d="M6.896 10.898c-.628.962-1.68 2.18-3.081 2.18-.663 0-1.3-.272-1.3-1.456 0-3.016 4.118-7.684 7.938-7.684 2.174 0 3.04 1.507 3.04 3.22 0 2.198-1.427 4.71-2.844 4.71-.45 0-.671-.246-.671-.638q0-.154.05-.332c-.483.826-1.417 1.593-2.291 1.593-.637 0-.96-.4-.96-.963 0-.205.043-.418.12-.63m5.162-3.8c0 .5-.294.749-.623.749-.335 0-.624-.25-.624-.749s.29-.748.624-.748c.329 0 .623.25.623.748m-1.87 0c0 .5-.295.749-.625.749-.334 0-.623-.25-.623-.749s.29-.748.623-.748c.33 0 .624.25.624.748" clip-rule="evenodd"/></svg>