<svg xmlns="http://www.w3.org/2000/svg" width="13" height="16" fill="none"><path fill="#EA0010" d="M6.875 0a6.5 6.5 0 0 1 2.766.672q1.297.64 2.047 1.765a4.8 4.8 0 0 1 .812 2.735q0 1.515-.5 2.86-.562 1.468-1.594 2.312-1.155.937-2.719.937a2.9 2.9 0 0 1-1.25-.297q-.624-.297-.906-.828l-.25 1q-.406 1.626-.656 2.25-.375.844-1.344 2.156l-.125.063-.094-.094-.03-.469a14 14 0 0 1-.095-1.312q0-.937.313-2.437.187-.875.625-2.594l.375-1.5q-.312-.594-.313-1.563 0-.906.47-1.5.405-.5 1-.625.593-.125 1.03.219t.438 1.094q0 .406-.125.906-.062.282-.281.875t-.282.875a3.7 3.7 0 0 0-.125.875q0 .594.422.984.423.39 1.016.391 1.001 0 1.687-.875.594-.72.876-1.938a8 8 0 0 0 .25-1.968q-.001-1.625-1.016-2.532-1.016-.906-2.672-.906-1.219 0-2.234.563a4.06 4.06 0 0 0-1.579 1.531q-.562.969-.562 2.219 0 .531.188 1.031.094.281.343.687.188.313.188.407 0 .25-.125.625-.156.468-.344.468-.405 0-.875-.421Q1.157 8.218.844 7.5A4.9 4.9 0 0 1 .5 5.625q0-1.687.938-3Q2.312 1.407 3.78.703A7.1 7.1 0 0 1 6.875 0"/></svg>