<svg xmlns="http://www.w3.org/2000/svg" width="15" height="14" fill="none"><path fill="#36C5F0" d="M5.59 0a1.272 1.272 0 1 0 .001 2.545h1.273V1.273C6.864.571 6.294.001 5.59 0M5.5 3.818H1.864c-.754 0-1.365.57-1.364 1.273-.001.702.61 1.272 1.363 1.273H5.5c.754 0 1.364-.57 1.364-1.273 0-.702-.61-1.272-1.364-1.273"/><path fill="#2EB67D" d="M14.5 5.09a1.273 1.273 0 0 0-2.545 0v1.274h1.273c.703 0 1.273-.57 1.273-1.273M10.682 5V1.363C10.682.612 10.113.001 9.41 0S8.136.611 8.137 1.363V5c-.001.752.569 1.363 1.272 1.364.704 0 1.274-.611 1.273-1.364"/><path fill="#ECB22E" d="M9.41 14a1.273 1.273 0 0 0 0-2.545H8.136v1.272c0 .702.569 1.272 1.272 1.273M9.5 10.182h3.637c.753 0 1.364-.57 1.363-1.273.002-.702-.61-1.272-1.363-1.273H9.501c-.754 0-1.365.57-1.364 1.273 0 .702.61 1.272 1.363 1.273"/><path fill="#E01E5A" d="M.5 8.91a1.273 1.273 0 0 0 2.545 0V7.635H1.773c-.704 0-1.274.57-1.273 1.273M4.318 9v3.636c0 .752.57 1.363 1.273 1.364.703 0 1.273-.611 1.273-1.364V9c0-.752-.57-1.363-1.273-1.364-.704 0-1.273.61-1.273 1.363"/></svg>