<svg xmlns="http://www.w3.org/2000/svg" width="16" height="16" fill="none"><path fill="url(#a)" d="m15.914 12.587-2.64 3.16a.6.6 0 0 1-.205.16.56.56 0 0 1-.244.057H.307a.3.3 0 0 1-.169-.056.34.34 0 0 1-.113-.15.38.38 0 0 1 .057-.369l2.643-3.16a.6.6 0 0 1 .204-.16.6.6 0 0 1 .243-.058H15.69q.091.001.168.056.077.057.113.15a.38.38 0 0 1-.057.37m-2.64-6.364a.6.6 0 0 0-.205-.16.6.6 0 0 0-.244-.057H.307c-.06 0-.119.02-.169.056a.34.34 0 0 0-.113.15.38.38 0 0 0 .057.37l2.643 3.16a.6.6 0 0 0 .204.16.6.6 0 0 0 .243.057H15.69q.091-.001.168-.056a.34.34 0 0 0 .113-.15.38.38 0 0 0-.057-.37zM.306 3.953h12.518q.127 0 .244-.057a.6.6 0 0 0 .204-.16l2.641-3.16a.379.379 0 0 0 .057-.37.34.34 0 0 0-.113-.15A.3.3 0 0 0 15.69 0H3.172a.6.6 0 0 0-.243.057.6.6 0 0 0-.204.16L.083 3.377a.379.379 0 0 0-.057.37.34.34 0 0 0 .113.15q.076.055.168.056"/><defs><linearGradient id="a" x1="1.35" x2="16.103" y1="16.345" y2="1.441" gradientUnits="userSpaceOnUse"><stop offset=".08" stop-color="#9945FF"/><stop offset=".3" stop-color="#8752F3"/><stop offset=".5" stop-color="#5497D5"/><stop offset=".6" stop-color="#43B4CA"/><stop offset=".72" stop-color="#28E0B9"/><stop offset=".97" stop-color="#19FB9B"/></linearGradient></defs></svg>